<mxfile host="app.diagrams.net" modified="2024-03-14T16:08:33.764Z" agent="Mozilla/5.0 (Windows NT 10.0; Win64; x64) AppleWebKit/537.36 (KHTML, like Gecko) Chrome/122.0.0.0 Safari/537.36" etag="4W2CPU30xv_qSUu4TLAs" version="23.1.5" type="device">
  <diagram name="Page-1" id="F1B4Imf4LjQTd207cMPp">
    <mxGraphModel dx="414" dy="1140" grid="1" gridSize="10" guides="1" tooltips="1" connect="1" arrows="1" fold="1" page="1" pageScale="1" pageWidth="827" pageHeight="1169" math="0" shadow="0">
      <root>
        <mxCell id="0" />
        <mxCell id="1" parent="0" />
        <mxCell id="iIwYOk8OejiTm6aSNY4z-1" value="&lt;font style=&quot;font-size: 20px;&quot;&gt;Serveur de versionnage&lt;/font&gt;" style="sketch=0;outlineConnect=0;fontColor=#232F3E;gradientColor=none;fillColor=#232F3D;strokeColor=none;dashed=0;verticalLabelPosition=bottom;verticalAlign=top;align=center;html=1;fontSize=12;fontStyle=0;aspect=fixed;pointerEvents=1;shape=mxgraph.aws4.servers;" vertex="1" parent="1">
          <mxGeometry x="240" y="40" width="78" height="78" as="geometry" />
        </mxCell>
        <mxCell id="iIwYOk8OejiTm6aSNY4z-2" value="&lt;font style=&quot;font-size: 20px;&quot;&gt;Vesion utilisateur&lt;/font&gt;" style="sketch=0;pointerEvents=1;shadow=0;dashed=0;html=1;strokeColor=none;fillColor=#505050;labelPosition=center;verticalLabelPosition=bottom;verticalAlign=top;outlineConnect=0;align=center;shape=mxgraph.office.devices.laptop;" vertex="1" parent="1">
          <mxGeometry x="120" y="240" width="80" height="60" as="geometry" />
        </mxCell>
        <mxCell id="iIwYOk8OejiTm6aSNY4z-3" value="&lt;font style=&quot;font-size: 20px;&quot;&gt;Vesion utilisateur&lt;/font&gt;" style="sketch=0;pointerEvents=1;shadow=0;dashed=0;html=1;strokeColor=none;fillColor=#505050;labelPosition=center;verticalLabelPosition=bottom;verticalAlign=top;outlineConnect=0;align=center;shape=mxgraph.office.devices.laptop;" vertex="1" parent="1">
          <mxGeometry x="360" y="240" width="80" height="60" as="geometry" />
        </mxCell>
        <mxCell id="iIwYOk8OejiTm6aSNY4z-4" value="" style="endArrow=classic;html=1;rounded=0;" edge="1" parent="1">
          <mxGeometry width="50" height="50" relative="1" as="geometry">
            <mxPoint x="190" y="230" as="sourcePoint" />
            <mxPoint x="260" y="150" as="targetPoint" />
          </mxGeometry>
        </mxCell>
        <mxCell id="iIwYOk8OejiTm6aSNY4z-5" value="&lt;font style=&quot;font-size: 16px;&quot;&gt;Commit&lt;/font&gt;" style="edgeLabel;html=1;align=center;verticalAlign=middle;resizable=0;points=[];" vertex="1" connectable="0" parent="iIwYOk8OejiTm6aSNY4z-4">
          <mxGeometry x="-0.0708" y="-3" relative="1" as="geometry">
            <mxPoint y="-5" as="offset" />
          </mxGeometry>
        </mxCell>
        <mxCell id="iIwYOk8OejiTm6aSNY4z-7" value="" style="endArrow=classic;html=1;rounded=0;" edge="1" parent="1">
          <mxGeometry width="50" height="50" relative="1" as="geometry">
            <mxPoint x="370" y="230" as="sourcePoint" />
            <mxPoint x="300" y="150" as="targetPoint" />
          </mxGeometry>
        </mxCell>
        <mxCell id="iIwYOk8OejiTm6aSNY4z-8" value="&lt;font style=&quot;font-size: 16px;&quot;&gt;Commit&lt;/font&gt;" style="edgeLabel;html=1;align=center;verticalAlign=middle;resizable=0;points=[];" vertex="1" connectable="0" parent="iIwYOk8OejiTm6aSNY4z-7">
          <mxGeometry x="-0.0708" y="-3" relative="1" as="geometry">
            <mxPoint as="offset" />
          </mxGeometry>
        </mxCell>
        <mxCell id="iIwYOk8OejiTm6aSNY4z-9" value="" style="endArrow=classic;html=1;rounded=0;" edge="1" parent="1">
          <mxGeometry width="50" height="50" relative="1" as="geometry">
            <mxPoint x="170" y="150" as="sourcePoint" />
            <mxPoint x="130" y="230" as="targetPoint" />
          </mxGeometry>
        </mxCell>
        <mxCell id="iIwYOk8OejiTm6aSNY4z-10" value="&lt;font style=&quot;font-size: 16px;&quot;&gt;Mise à jour&lt;/font&gt;" style="edgeLabel;html=1;align=center;verticalAlign=middle;resizable=0;points=[];" vertex="1" connectable="0" parent="iIwYOk8OejiTm6aSNY4z-9">
          <mxGeometry x="-0.0708" y="-3" relative="1" as="geometry">
            <mxPoint y="-5" as="offset" />
          </mxGeometry>
        </mxCell>
        <mxCell id="iIwYOk8OejiTm6aSNY4z-11" value="" style="endArrow=classic;html=1;rounded=0;" edge="1" parent="1">
          <mxGeometry width="50" height="50" relative="1" as="geometry">
            <mxPoint x="390" y="150" as="sourcePoint" />
            <mxPoint x="430" y="230" as="targetPoint" />
          </mxGeometry>
        </mxCell>
        <mxCell id="iIwYOk8OejiTm6aSNY4z-12" value="&lt;font style=&quot;font-size: 16px;&quot;&gt;Mise à jour&lt;/font&gt;" style="edgeLabel;html=1;align=center;verticalAlign=middle;resizable=0;points=[];" vertex="1" connectable="0" parent="iIwYOk8OejiTm6aSNY4z-11">
          <mxGeometry x="-0.0708" y="-3" relative="1" as="geometry">
            <mxPoint x="8" y="-9" as="offset" />
          </mxGeometry>
        </mxCell>
      </root>
    </mxGraphModel>
  </diagram>
</mxfile>
